<?xml version="1.0" encoding="utf-8"?>
<!-- Generator: Adobe Illustrator 22.0.1, SVG Export Plug-In . SVG Version: 6.00 Build 0)  -->
<svg version="1.1" id="Слой_2" xmlns="http://www.w3.org/2000/svg" xmlns:xlink="http://www.w3.org/1999/xlink" x="0px" y="0px"
	 viewBox="0 0 42 42.8" style="enable-background:new 0 0 42 42.8;" xml:space="preserve" height="30px" width="auto">
<style type="text/css">
	.st0{fill:#FFB600;}
	.st1{fill:#00CFFF;}
	.st2{fill:#EFEFEF;}
</style>
<g>
	<path class="st0" d="M14.5,4.1c-2.9,0-5.4,1-7.4,3c-2.1,2.1-3.1,4.6-3.1,7.4c0,2.8,1,5.3,3.1,7.4c2,2.1,4.5,3.1,7.4,3.1
		c2.9,0,5.4-1,7.4-3.1c2-2.1,3-4.6,3-7.4c0-2.8-1-5.3-3-7.4C19.8,5.2,17.3,4.1,14.5,4.1z"/>
	<path d="M92.7,18.6l-6.4,17.3c-0.3,1-1,1.4-2,1.4c-1,0-1.6-0.5-2-1.4l-5.7-16.7l-3.1,16.5c-0.1,0.5-0.4,1-0.8,1.3
		c-0.5,0.4-1,0.5-1.5,0.4c-0.6-0.1-1.1-0.4-1.4-0.8c-0.3-0.5-0.4-1-0.3-1.6l4.1-24.7c0.2-1.1,0.9-1.7,1.9-1.7
		c1.1-0.1,1.8,0.4,2.1,1.4l6.6,18.7L91.2,10c0.3-1,1-1.5,2.1-1.4c1.1,0,1.7,0.6,1.9,1.7l5,24.6c0.1,0.3,0,0.8-0.3,1.5
		c-0.4,0.5-0.8,0.8-1.3,0.9h-0.2l-0.2,0c-1.1,0-1.8-0.6-2-1.7L92.7,18.6z"/>
	<path d="M115.3,37.4c-2.8,0-5.2-1-7.3-3c-2-2-3-4.4-3-7.3c0-2.8,1-5.3,3-7.3c2-2,4.4-3,7.3-3c2.9,0,5.3,1,7.3,3c2,2,3,4.4,3,7.3
		c0,2.8-1,5.3-3,7.3C120.6,36.4,118.2,37.4,115.3,37.4z M115.3,20.8c-1.7,0-3.2,0.6-4.4,1.8c-1.2,1.2-1.8,2.7-1.8,4.4
		c0,1.7,0.6,3.2,1.8,4.4c1.2,1.2,2.7,1.8,4.4,1.8c1.7,0,3.2-0.6,4.4-1.8c1.2-1.3,1.8-2.7,1.8-4.4c0-1.7-0.6-3.1-1.8-4.4
		C118.5,21.5,117,20.8,115.3,20.8z"/>
	<path d="M151.2,35.3c0,0.6-0.2,1.1-0.6,1.4c-0.4,0.4-0.9,0.6-1.5,0.6c-0.5,0-1-0.2-1.4-0.6c-0.4-0.4-0.6-0.9-0.6-1.4v-8.2
		c0-1.7-0.6-3.1-1.8-4.4c-1.3-1.2-2.8-1.8-4.4-1.8c-1.7,0-3.2,0.6-4.4,1.8c-1.2,1.2-1.8,2.7-1.8,4.4v8.2c0,0.6-0.2,1.1-0.6,1.4
		c-0.4,0.4-0.9,0.6-1.5,0.6c-0.5,0-1-0.2-1.4-0.6c-0.4-0.4-0.6-0.9-0.6-1.4v-8.2c0-2.8,1-5.3,3-7.3c2-2,4.4-3,7.3-3
		c2.8,0,5.3,1,7.3,3c2,2,3,4.5,3,7.3V35.3z"/>
	<path d="M159.8,29.1c0.4,1.3,1.2,2.3,2.3,3c1.1,0.8,2.3,1.2,3.7,1.2c0.5,0,0.8,0,0.8,0l0.3,0l0.3,0l0.2,0l0.2,0
		c0.8-0.2,1.7-0.6,2.7-1.1c0.5-0.3,1-0.3,1.5-0.1c0.6,0.2,1,0.6,1.2,1.1c0.5,1,0.2,1.9-1,2.7c-1.4,0.8-2.6,1.3-3.6,1.6l-0.3,0
		l-0.3,0l-0.4,0l-0.5,0l-0.6,0h-0.6c-2.8,0-5.3-1-7.3-3c-2-2-3-4.4-3-7.3c0-2.9,1-5.3,3-7.3c2-2,4.4-3,7.3-3c2.8,0,5.1,0.9,7,2.6
		c2.2,2,3.3,4.5,3.3,7.7c0,0.5-0.2,1-0.6,1.4c-0.5,0.4-1,0.6-1.5,0.6H159.8z M171.6,25c-0.4-1.4-1.2-2.4-2.4-3.2c-1-0.7-2.2-1-3.6-1
		c-1.3,0-2.5,0.4-3.7,1.2c-1.1,0.8-1.8,1.8-2.3,3H171.6z"/>
	<path d="M219.4,37.4c-0.6,0-1.1-0.2-1.4-0.6c-0.4-0.4-0.6-0.9-0.6-1.4V10.8c0-0.5,0.2-1,0.6-1.4c0.4-0.4,0.9-0.6,1.5-0.6h7.9
		c2.2,0.1,4,0.9,5.6,2.5c1.6,1.6,2.4,3.5,2.4,5.7c-0.1,1.9-0.7,3.6-1.8,5.1c1.3,0.7,2.4,1.7,3.2,3c0.8,1.3,1.2,2.8,1.2,4.3
		c-0.1,2.2-0.8,4-2.3,5.5c-1.5,1.5-3.3,2.4-5.4,2.5H219.4z M221.5,12.9v8.2h5.6c1.2,0,2.2-0.4,3-1.2c0.8-0.8,1.2-1.8,1.3-3
		c-0.1-1.1-0.5-2.1-1.3-2.9c-0.8-0.8-1.8-1.1-3-1.1H221.5z M230.1,33.3c1,0,1.9-0.4,2.7-1.1c0.8-0.8,1.2-1.7,1.2-2.8
		c0-1-0.4-1.9-1.2-2.8c-0.8-0.8-1.8-1.3-2.9-1.3h-8.4v8.1H230.1z"/>
	<path d="M263.5,35.3c0,0.6-0.2,1.1-0.6,1.5c-0.4,0.4-0.9,0.6-1.5,0.6c-0.4,0-0.8-0.2-1.3-0.6c-0.5-0.5-0.7-1-0.7-1.5
		c-1.7,1.4-3.7,2.1-6.1,2.1c-2.9,0-5.3-1-7.3-2.9c-2-1.9-3-4.3-3-7.2c0-2.9,1-5.3,3-7.3c2-2,4.5-3,7.3-3c2.9,0,5.3,1,7.2,3
		c1.9,2,2.9,4.4,2.9,7.3V35.3z M253.4,33.3c1.7,0,3.2-0.6,4.3-1.8c1.1-1.1,1.7-2.6,1.7-4.3c0-1.8-0.6-3.2-1.7-4.5
		c-1.2-1.3-2.6-1.9-4.3-1.9s-3.2,0.6-4.5,1.9c-1.3,1.3-1.9,2.7-1.9,4.5c0,1.7,0.6,3.1,1.9,4.3C250.1,32.7,251.6,33.3,253.4,33.3z"/>
	<path d="M272.6,35.4c0,0.5-0.2,1-0.6,1.4c-0.4,0.4-0.9,0.6-1.4,0.6c-0.6,0-1.1-0.2-1.4-0.6c-0.4-0.4-0.6-0.9-0.6-1.4v-8.2
		c0-2.8,1-5.3,3-7.3c2-2,4.4-3,7.3-3c0.5,0,1,0.2,1.5,0.6c0.4,0.5,0.6,0.9,0.6,1.4c0,0.5-0.2,1-0.6,1.4c-0.4,0.4-0.9,0.6-1.5,0.6
		c-1.7,0-3.2,0.6-4.4,1.8c-1.2,1.2-1.8,2.7-1.8,4.4V35.4z"/>
	<path d="M187.4,33.1L180,19.8c-1.2-2.5,2.2-4.1,3.4-1.8l5.9,11.3l5.6-11.4c0.8-2,4.1-1.1,3.4,1.1l-7.1,14.8c0,0-2.4,5.4-6.8,5.4
		c-2.7,0-3.1-3.8,0.3-3.8C186.6,35.5,187.4,33.1,187.4,33.1z"/>
	<path d="M41.2,13.9c-0.5-0.5-1-0.7-1.6-0.7c-0.6,0-1.2,0.2-1.7,0.7c-0.4,0.4-0.6,0.9-0.6,1.6v12.4c0,2.8-1,5.2-3,7.2
		c-2,2-4.4,2.9-7.2,2.9c-2.7,0-5.1-1-7.2-3c-1.7-1.8-2.7-3.9-2.9-6.3c2.9-0.5,5.4-1.8,7.7-4c2.8-2.8,4.2-6.1,4.2-10.1
		c0-4-1.4-7.4-4.2-10.2c-2.8-2.8-6.1-4.2-10.2-4.2c-4,0-7.3,1.4-10.1,4.2c-2.8,2.8-4.2,6.2-4.2,10.2c0,4,1.4,7.3,4.2,10.1
		c2.4,2.4,5,3.7,8.1,4.1c0.2,3.6,1.6,6.7,4.3,9.4c2.9,2.9,6.2,4.3,10.3,4.3c4.1,0,7.5-1.4,10.3-4.3c2.9-2.9,4.3-6.3,4.3-10.4V15.5
		C41.8,14.8,41.6,14.3,41.2,13.9z M4.1,14.6c0-2.9,1-5.4,3.1-7.4c2-2,4.5-3,7.4-3c2.8,0,5.3,1,7.5,3.1c2,2.1,3,4.6,3,7.4
		c0,2.7-1,5.2-3,7.4c-1.4,1.4-3.1,2.4-5,2.8v-9.3c0-0.6-0.2-1.2-0.6-1.6c-0.5-0.5-1-0.7-1.6-0.7c-0.6,0-1.2,0.2-1.7,0.7
		c-0.4,0.4-0.6,0.9-0.6,1.6v9.4c-2-0.4-3.8-1.4-5.3-2.9C5.1,19.9,4.1,17.4,4.1,14.6z"/>
	<path class="st1" d="M19.9,35c2.1,2,4.5,3,7.2,3c2.8,0,5.2-1,7.2-2.9c2-2,3-4.4,3-7.2v-9.3h-8.9c-0.6,2.3-1.8,4.3-3.7,6.2
		c-2.2,2.2-4.8,3.5-7.7,4C17.2,31.1,18.2,33.2,19.9,35z"/>
</g>
<g>
	<g>
		
			<text transform="matrix(1 0 0 1 745.7644 182.9104)" style="stroke:#000000;stroke-width:0.5686;stroke-miterlimit:10; font-family:'ArciformSanscyr-lat-Regular'; font-size:23.3315px; letter-spacing:2;">Arciform Sans cyr-lat Regular</text>
	</g>
	<rect x="749.5" y="-89.4" class="st0" width="70.5" height="70.5"/>
	<rect x="842.1" y="-89.4" class="st1" width="70.5" height="70.5"/>
	<rect x="932.5" y="-89.4" class="st2" width="70.5" height="70.5"/>
	<rect x="1025.1" y="-89.4" width="70.5" height="70.5"/>
	<text transform="matrix(1 0 0 1 894.6742 -129.1938)" style="font-family:'PFDinTextCompPro-Regular'; font-size:29.4328px;">Colors</text>
	<text transform="matrix(1 0 0 1 898.0448 134.8062)" style="font-family:'PFDinTextCompPro-Regular'; font-size:29.4328px;">Fonts</text>
	<text transform="matrix(1 0 0 1 758.6742 8.4729)" style="font-family:'PFDinTextCompPro-Regular'; font-size:20px;">#ffb600</text>
	<text transform="matrix(1 0 0 1 853.1742 8.4729)" style="font-family:'PFDinTextCompPro-Regular'; font-size:20px;">#00cfff</text>
	<text transform="matrix(1 0 0 1 943.6742 8.4729)" style="font-family:'PFDinTextCompPro-Regular'; font-size:20px;">#efefef</text>
	<text transform="matrix(1 0 0 1 1031.6742 8.4729)" style="font-family:'PFDinTextCompPro-Regular'; font-size:20px;">#000000</text>
</g>
</svg>
